<svg width="1000" height="510" viewBox="0 0 1000 510" fill="none" xmlns="http://www.w3.org/2000/svg">
<g clip-path="url(#clip0_22_33)">
<path d="M75.7453 149.4C81.3453 149.4 86.412 150.6 90.9453 153C95.4787 155.4 99.212 158.6 102.145 162.6C105.079 166.333 107.345 170.6 108.945 175.4C110.545 180.2 111.345 184.867 111.345 189.4C111.345 192.333 110.679 195.4 109.345 198.6C108.012 201.533 105.879 203 102.945 203C101.345 203 99.8787 200.867 98.5453 196.6C97.4787 192.333 96.012 187.8 94.1453 183C92.2787 177.933 89.8787 173.267 86.9453 169C84.012 164.733 79.8787 162.6 74.5453 162.6C70.5453 162.6 67.0786 165.267 64.1453 170.6C61.212 175.667 58.6786 182.2 56.5453 190.2C54.6786 198.2 53.212 207.133 52.1453 217C51.0786 226.6 50.5453 236.067 50.5453 245.4C50.5453 254.2 51.212 263 52.5453 271.8C53.8786 280.6 56.012 288.6 58.9453 295.8C61.8786 303 65.8786 308.867 70.9453 313.4C76.012 317.933 82.2786 320.2 89.7453 320.2C96.9453 320.2 103.479 318.333 109.345 314.6C115.479 310.6 120.945 305.533 125.745 299.4C130.545 293.267 134.812 286.467 138.545 279C142.279 271.267 145.479 263.8 148.145 256.6C151.079 249.133 153.345 242.2 154.945 235.8C156.812 229.133 158.145 223.933 158.945 220.2C159.479 218.6 160.145 217.667 160.945 217.4C162.012 216.867 163.345 216.6 164.945 216.6C171.612 216.6 174.945 219.933 174.945 226.6C174.945 230.6 173.879 236.2 171.745 243.4C169.612 250.333 166.545 257.933 162.545 266.2C158.812 274.467 154.145 282.867 148.545 291.4C143.212 299.667 137.079 307.267 130.145 314.2C123.212 320.867 115.612 326.333 107.345 330.6C99.0786 334.867 90.2786 337 80.9453 337C70.2786 337 60.812 334.733 52.5453 330.2C44.2786 325.667 37.212 319.533 31.3453 311.8C25.7453 303.8 21.4786 294.467 18.5453 283.8C15.612 272.867 14.1453 261 14.1453 248.2C14.1453 232.467 15.612 218.467 18.5453 206.2C21.7453 193.933 26.1453 183.667 31.7453 175.4C37.3453 166.867 43.8786 160.467 51.3453 156.2C58.812 151.667 66.9453 149.4 75.7453 149.4Z" fill="url(#paint0_angular_22_33)"/>
<path d="M207.192 220.6C207.192 214.2 206.792 209 205.992 205C205.459 201 204.259 197.933 202.392 195.8C200.792 193.4 198.392 191.933 195.192 191.4C192.259 190.6 188.392 190.467 183.592 191C182.792 199.8 181.592 210.6 179.992 223.4C178.392 236.2 176.926 249.133 175.592 262.2C174.259 275 173.059 287 171.992 298.2C170.926 309.133 170.392 317.4 170.392 323C170.392 333.933 168.659 341.533 165.192 345.8C161.992 350.333 158.126 352.6 153.592 352.6C150.126 352.6 147.326 351.133 145.192 348.2C143.059 345.267 141.992 341.533 141.992 337C141.992 333.8 142.926 327 144.792 316.6C146.392 305.933 148.259 293.667 150.392 279.8C152.526 265.933 154.659 251.267 156.792 235.8C159.192 220.333 160.926 206.067 161.992 193C153.192 192.467 146.126 189.533 140.792 184.2C135.459 178.6 132.792 170.733 132.792 160.6C132.792 153.667 135.326 147.4 140.392 141.8C145.459 136.2 152.792 133.4 162.392 133.4C167.726 133.4 171.859 134.6 174.792 137C177.726 139.133 179.859 142.2 181.192 146.2C182.792 149.933 183.726 154.2 183.992 159C184.526 163.8 184.792 168.733 184.792 173.8C189.326 173.533 192.926 173.267 195.592 173C198.526 172.467 202.926 172.2 208.792 172.2C218.126 172.2 225.192 176.067 229.992 183.8C234.792 191.533 237.192 201 237.192 212.2V249C237.192 250.867 237.192 255 237.192 261.4C237.192 267.8 237.459 274.467 237.992 281.4C238.526 288.067 239.459 294.067 240.792 299.4C242.392 304.733 244.526 307.267 247.192 307C251.726 306.467 255.992 304.333 259.992 300.6C263.992 296.6 267.859 291.8 271.592 286.2C275.326 280.6 278.792 274.467 281.992 267.8C285.192 260.867 288.126 254.2 290.792 247.8C293.459 241.133 295.726 235.133 297.592 229.8C299.726 224.467 301.459 220.333 302.792 217.4C303.859 216.867 304.926 216.6 305.992 216.6C308.126 216.6 310.259 217.4 312.392 219C314.792 220.6 315.992 222.467 315.992 224.6C315.992 232.6 313.592 242.2 308.792 253.4C304.259 264.333 298.259 274.867 290.792 285C283.592 294.867 275.326 303.267 265.992 310.2C256.659 317.133 247.192 320.6 237.592 320.6C231.192 320.6 225.859 318.867 221.592 315.4C217.326 311.667 213.992 307 211.592 301.4C209.192 295.8 207.459 289.667 206.392 283C205.592 276.333 205.192 269.933 205.192 263.8C205.192 256.867 205.459 250.467 205.992 244.6C206.792 238.467 207.192 230.467 207.192 220.6ZM163.192 173.4C163.459 164.867 163.059 158.067 161.992 153C160.926 147.667 158.926 145 155.992 145C153.326 145 151.192 146.6 149.592 149.8C147.992 153 147.192 155.8 147.192 158.2C147.192 163.267 148.926 166.867 152.392 169C155.859 171.133 159.459 172.6 163.192 173.4Z" fill="url(#paint1_linear_22_33)"/>
<path d="M207.192 220.6C207.192 214.2 206.792 209 205.992 205C205.459 201 204.259 197.933 202.392 195.8C200.792 193.4 198.392 191.933 195.192 191.4C192.259 190.6 188.392 190.467 183.592 191C182.792 199.8 181.592 210.6 179.992 223.4C178.392 236.2 176.926 249.133 175.592 262.2C174.259 275 173.059 287 171.992 298.2C170.926 309.133 170.392 317.4 170.392 323C170.392 333.933 168.659 341.533 165.192 345.8C161.992 350.333 158.126 352.6 153.592 352.6C150.126 352.6 147.326 351.133 145.192 348.2C143.059 345.267 141.992 341.533 141.992 337C141.992 333.8 142.926 327 144.792 316.6C146.392 305.933 148.259 293.667 150.392 279.8C152.526 265.933 154.659 251.267 156.792 235.8C159.192 220.333 160.926 206.067 161.992 193C153.192 192.467 146.126 189.533 140.792 184.2C135.459 178.6 132.792 170.733 132.792 160.6C132.792 153.667 135.326 147.4 140.392 141.8C145.459 136.2 152.792 133.4 162.392 133.4C167.726 133.4 171.859 134.6 174.792 137C177.726 139.133 179.859 142.2 181.192 146.2C182.792 149.933 183.726 154.2 183.992 159C184.526 163.8 184.792 168.733 184.792 173.8C189.326 173.533 192.926 173.267 195.592 173C198.526 172.467 202.926 172.2 208.792 172.2C218.126 172.2 225.192 176.067 229.992 183.8C234.792 191.533 237.192 201 237.192 212.2V249C237.192 250.867 237.192 255 237.192 261.4C237.192 267.8 237.459 274.467 237.992 281.4C238.526 288.067 239.459 294.067 240.792 299.4C242.392 304.733 244.526 307.267 247.192 307C251.726 306.467 255.992 304.333 259.992 300.6C263.992 296.6 267.859 291.8 271.592 286.2C275.326 280.6 278.792 274.467 281.992 267.8C285.192 260.867 288.126 254.2 290.792 247.8C293.459 241.133 295.726 235.133 297.592 229.8C299.726 224.467 301.459 220.333 302.792 217.4C303.859 216.867 304.926 216.6 305.992 216.6C308.126 216.6 310.259 217.4 312.392 219C314.792 220.6 315.992 222.467 315.992 224.6C315.992 232.6 313.592 242.2 308.792 253.4C304.259 264.333 298.259 274.867 290.792 285C283.592 294.867 275.326 303.267 265.992 310.2C256.659 317.133 247.192 320.6 237.592 320.6C231.192 320.6 225.859 318.867 221.592 315.4C217.326 311.667 213.992 307 211.592 301.4C209.192 295.8 207.459 289.667 206.392 283C205.592 276.333 205.192 269.933 205.192 263.8C205.192 256.867 205.459 250.467 205.992 244.6C206.792 238.467 207.192 230.467 207.192 220.6ZM163.192 173.4C163.459 164.867 163.059 158.067 161.992 153C160.926 147.667 158.926 145 155.992 145C153.326 145 151.192 146.6 149.592 149.8C147.992 153 147.192 155.8 147.192 158.2C147.192 163.267 148.926 166.867 152.392 169C155.859 171.133 159.459 172.6 163.192 173.4Z" fill="url(#paint2_linear_22_33)"/>
<path d="M399.552 261.8C399.552 268.467 399.552 276.2 399.552 285C399.552 293.8 399.418 303.267 399.152 313.4C411.952 307 421.285 300.333 427.152 293.4C433.285 286.467 437.685 279.267 440.352 271.8C443.018 264.067 444.885 255.8 445.952 247C447.018 238.2 448.885 228.6 451.552 218.2C451.818 217.4 452.352 217 453.152 217C453.952 216.733 454.752 216.6 455.552 216.6C457.685 216.6 459.818 217.4 461.952 219C464.352 220.6 465.552 222.467 465.552 224.6C465.552 241.133 463.818 255.267 460.352 267C456.885 278.733 452.085 288.733 445.952 297C439.818 305 432.752 311.667 424.752 317C416.752 322.333 408.085 327 398.752 331V355.4C398.752 373.267 397.818 391 395.952 408.6C394.352 426.467 390.885 442.467 385.552 456.6C380.218 470.733 372.618 482.2 362.752 491C353.152 499.8 340.352 504.2 324.352 504.2C305.152 504.2 289.952 498.6 278.752 487.4C267.285 476.467 261.552 461.4 261.552 442.2C261.552 429.4 264.352 417 269.952 405C275.285 393.267 282.618 382.467 291.952 372.6C301.285 363 311.952 354.333 323.952 346.6C336.218 339.133 349.018 333.133 362.352 328.6C364.485 327.8 366.618 327.133 368.752 326.6C370.885 325.8 373.018 325 375.152 324.2C375.152 313.8 375.285 303 375.552 291.8C375.818 280.6 375.685 271.133 375.152 263.4C373.018 270.6 370.485 277.533 367.552 284.2C364.618 290.6 361.285 296.2 357.552 301C353.818 305.8 349.552 309.667 344.752 312.6C339.952 315.267 334.485 316.6 328.352 316.6C312.885 316.6 302.218 310.6 296.352 298.6C290.485 286.6 287.552 268.733 287.552 245C287.552 242.067 287.818 236.867 288.352 229.4C288.885 221.933 289.418 214.067 289.952 205.8C290.752 197.533 291.552 189.933 292.352 183C293.152 175.8 293.818 171.267 294.352 169.4C295.685 163.8 297.418 159.4 299.552 156.2C301.952 152.733 305.018 151 308.752 151C313.818 151 317.285 153.8 319.152 159.4C321.018 164.733 321.952 170.467 321.952 176.6C321.952 180.067 321.552 185.533 320.752 193C319.952 200.467 319.152 208.867 318.352 218.2C317.552 227.267 317.018 236.733 316.752 246.6C316.485 256.2 316.752 265 317.552 273C318.618 281 320.485 287.667 323.152 293C326.085 298.067 330.085 300.6 335.152 300.6C340.485 300.6 345.018 298.067 348.752 293C352.485 287.667 355.685 280.867 358.352 272.6C361.018 264.333 363.152 255.267 364.752 245.4C366.352 235.267 367.685 225.533 368.752 216.2C369.818 206.6 370.618 197.933 371.152 190.2C371.685 182.2 372.218 176.2 372.752 172.2C373.552 165.267 375.285 159.4 377.952 154.6C380.618 149.533 384.085 147 388.352 147C393.152 147 396.618 150.467 398.752 157.4C401.152 164.333 402.352 173.8 402.352 185.8C402.352 195.133 401.818 206.733 400.752 220.6C399.952 234.2 399.552 247.933 399.552 261.8ZM375.152 339.8C374.085 340.333 373.152 340.6 372.352 340.6L366.352 343C365.818 343 364.752 343.267 363.152 343.8C352.485 347.533 342.618 352.733 333.552 359.4C324.485 366.067 316.618 373.8 309.952 382.6C303.285 391.4 298.085 401 294.352 411.4C290.885 421.8 289.152 432.467 289.152 443.4C289.152 458.867 292.218 471.4 298.352 481C304.752 490.6 313.552 495.4 324.752 495.4C334.885 495.4 343.152 490.733 349.552 481.4C355.952 472.067 361.018 459.933 364.752 445C368.485 430.067 371.018 413.267 372.352 394.6C373.952 376.2 374.885 357.933 375.152 339.8Z" fill="url(#paint3_angular_22_33)"/>
<path d="M451.527 323C451.527 310.2 455.66 299.4 463.927 290.6C472.193 281.533 482.327 273.667 494.327 267C488.727 263 482.993 259 477.127 255C471.26 250.733 465.927 246.2 461.127 241.4C456.327 236.6 452.327 231.4 449.127 225.8C445.927 219.933 444.327 213.4 444.327 206.2C444.327 199.8 445.527 193.8 447.927 188.2C450.327 182.6 453.66 177.667 457.927 173.4C462.46 169.133 467.66 165.8 473.527 163.4C479.66 160.733 486.327 159.4 493.527 159.4C503.66 159.4 512.327 162.467 519.527 168.6C526.993 174.467 531.793 183.267 533.927 195C534.46 197.667 534.86 200.467 535.127 203.4C535.393 206.067 535.26 208.6 534.727 211C534.193 213.4 532.993 215.4 531.127 217C529.26 218.6 526.46 219.4 522.727 219.4C520.06 219.4 518.06 218.733 516.727 217.4C515.393 215.8 514.46 213.933 513.927 211.8C513.393 209.4 513.127 206.867 513.127 204.2C513.393 201.267 513.527 198.467 513.527 195.8C513.527 187.267 512.193 180.6 509.527 175.8C506.86 171 503.127 168.6 498.327 168.6C494.06 168.6 490.193 169.667 486.727 171.8C483.26 173.933 480.327 176.733 477.927 180.2C475.527 183.667 473.66 187.533 472.327 191.8C470.993 196.067 470.327 200.333 470.327 204.6C470.327 209.933 471.66 215 474.327 219.8C476.993 224.333 480.46 228.733 484.727 233C488.993 237.267 493.793 241.4 499.127 245.4C504.46 249.133 509.793 253 515.127 257C522.06 253.8 528.993 250.867 535.927 248.2C543.127 245.533 549.793 243 555.927 240.6C562.327 237.933 568.06 235.267 573.127 232.6C578.193 229.933 582.327 227.267 585.527 224.6C586.86 223.533 588.46 221.933 590.327 219.8C592.193 217.667 593.793 216.6 595.127 216.6C597.26 216.6 599.127 217.4 600.727 219C602.327 220.333 603.127 222.333 603.127 225C603.127 227.133 602.593 229 601.527 230.6C600.46 232.2 599.26 233.667 597.927 235C595.26 237.4 591.393 239.8 586.327 242.2C581.527 244.6 576.06 247.133 569.927 249.8C563.793 252.467 557.127 255.267 549.927 258.2C542.993 261.133 536.06 264.333 529.127 267.8C534.46 272.6 538.86 277.667 542.327 283C546.06 288.333 547.927 294.2 547.927 300.6C547.927 308.333 545.927 315.533 541.927 322.2C538.193 328.6 533.393 334.2 527.527 339C521.66 343.533 515.127 347 507.927 349.4C500.993 352.067 494.193 353.4 487.527 353.4C477.393 353.4 468.86 350.6 461.927 345C454.993 339.4 451.527 332.067 451.527 323ZM509.127 278.6C499.527 284.733 491.527 291.533 485.127 299C478.727 306.467 475.527 315.133 475.527 325C475.527 330.067 476.86 334.6 479.527 338.6C482.193 342.6 485.527 344.6 489.527 344.6C494.327 344.6 498.727 343.267 502.727 340.6C506.727 337.667 510.06 334.067 512.727 329.8C515.393 325.533 517.393 320.867 518.727 315.8C520.327 310.467 521.127 305.4 521.127 300.6C521.127 296.333 520.06 292.467 517.927 289C515.793 285.533 512.86 282.067 509.127 278.6Z" fill="url(#paint4_angular_22_33)"/>
<path d="M580.281 282.6C580.281 268.467 580.281 256.2 580.281 245.8C580.281 235.4 580.281 225.4 580.281 215.8C580.281 206.2 580.281 196.2 580.281 185.8C580.548 175.4 580.815 163.133 581.081 149C581.615 138.067 582.015 126.867 582.281 115.4C573.215 115.667 564.948 115.8 557.481 115.8C549.748 115.8 543.215 115.8 537.881 115.8C523.481 115.533 512.415 114.733 504.681 113.4C496.681 111.8 492.681 109.267 492.681 105.8C492.681 102.6 496.281 99.9333 503.481 97.8C510.415 95.4 518.948 94.2 529.081 94.2C532.815 94.2 539.881 94.3333 550.281 94.6C560.415 94.8667 571.748 95 584.281 95C585.081 84.3333 586.281 75.2667 587.881 67.8C588.148 66.4667 588.548 64.7333 589.081 62.6C589.881 60.2 590.815 57.9333 591.881 55.8C593.215 53.4 594.681 51.4 596.281 49.8C598.148 47.9333 600.281 47 602.681 47C608.815 47 613.081 49.2667 615.481 53.8C618.148 58.3333 619.215 63.6667 618.681 69.8C618.415 73 618.015 76.8667 617.481 81.4C616.948 85.6667 616.415 90.3333 615.881 95.4C631.081 95.6667 646.548 95.9333 662.281 96.2C678.281 96.4667 693.615 96.6 708.281 96.6C711.481 96.6 714.815 96.6 718.281 96.6C721.748 96.6 724.948 96.8667 727.881 97.4C730.815 97.6667 733.215 98.3333 735.081 99.4C737.215 100.2 738.281 101.667 738.281 103.8C738.281 106.2 737.348 108.067 735.481 109.4C733.615 110.467 731.081 111.267 727.881 111.8C724.948 112.333 721.615 112.6 717.881 112.6C714.415 112.6 711.081 112.6 707.881 112.6C695.881 112.6 681.481 112.867 664.681 113.4C647.881 113.667 630.948 114.067 613.881 114.6C613.348 117.8 612.948 120.867 612.681 123.8C612.681 126.733 612.548 129.533 612.281 132.2C611.215 152.733 610.148 170.6 609.081 185.8C608.015 201 607.481 215.4 607.481 229C607.481 239.133 607.348 250.6 607.081 263.4C607.081 275.933 607.348 287.8 607.881 299C608.681 309.933 610.148 319.267 612.281 327C614.415 334.467 617.748 338.2 622.281 338.2C626.015 338.2 630.015 335.933 634.281 331.4C638.548 326.6 642.815 320.6 647.081 313.4C651.615 305.933 656.015 297.667 660.281 288.6C664.548 279.533 668.415 270.6 671.881 261.8C675.615 252.733 678.815 244.333 681.481 236.6C684.148 228.867 686.148 222.733 687.481 218.2C687.748 217.4 688.281 217 689.081 217C689.881 216.733 690.681 216.6 691.481 216.6C693.615 216.6 695.748 217.4 697.881 219C700.281 220.6 701.481 222.467 701.481 224.6C701.481 229.667 700.281 236.333 697.881 244.6C695.481 252.867 692.281 261.8 688.281 271.4C684.281 280.733 679.481 290.333 673.881 300.2C668.548 309.8 662.681 318.467 656.281 326.2C650.148 333.933 643.748 340.2 637.081 345C630.415 350.067 623.748 352.6 617.081 352.6C611.215 352.6 606.015 350.6 601.481 346.6C596.948 342.6 593.081 337.4 589.881 331C586.681 324.333 584.281 316.867 582.681 308.6C581.081 300.067 580.281 291.4 580.281 282.6Z" fill="url(#paint5_angular_22_33)"/>
<path d="M679.136 248.2C679.136 237 680.603 225.933 683.536 215C686.469 204.067 690.736 194.2 696.336 185.4C701.936 176.6 708.736 169.533 716.736 164.2C724.736 158.6 733.803 155.8 743.936 155.8C751.669 155.8 758.603 158.067 764.736 162.6C770.869 167.133 775.003 174.067 777.136 183.4C777.669 181.533 778.336 179.267 779.136 176.6C780.203 173.667 781.403 170.867 782.736 168.2C784.069 165.533 785.669 163.267 787.536 161.4C789.669 159.267 791.936 158.2 794.336 158.2C798.869 158.2 802.069 160.067 803.936 163.8C806.069 167.267 807.136 173.267 807.136 181.8C807.136 183.133 807.003 185.533 806.736 189C806.469 192.467 806.203 196.333 805.936 200.6C805.669 204.6 805.403 208.867 805.136 213.4C804.869 217.667 804.603 221.4 804.336 224.6C803.536 234.467 803.269 244.467 803.536 254.6C803.803 264.733 803.936 274.733 803.936 284.6C803.936 286.2 804.069 289 804.336 293C804.603 297 805.136 301.267 805.936 305.8C806.736 310.067 807.936 313.933 809.536 317.4C811.403 320.6 813.803 322.2 816.736 322.2C821.803 322.2 826.603 319.933 831.136 315.4C835.669 310.867 839.803 305.133 843.536 298.2C847.536 291 851.136 283.133 854.336 274.6C857.536 266.067 860.336 257.933 862.736 250.2C865.403 242.467 867.536 235.667 869.136 229.8C871.003 223.933 872.469 220.067 873.536 218.2C874.069 217.133 875.403 216.6 877.536 216.6C879.669 216.6 881.803 217.4 883.936 219C886.336 220.6 887.536 222.467 887.536 224.6C887.536 229.667 886.603 236.067 884.736 243.8C883.136 251.267 880.736 259.133 877.536 267.4C874.336 275.667 870.469 284.067 865.936 292.6C861.669 300.867 856.736 308.333 851.136 315C845.803 321.667 839.936 327.133 833.536 331.4C827.136 335.4 820.336 337.4 813.136 337.4C802.736 337.4 794.469 333.8 788.336 326.6C782.203 319.4 778.203 309.533 776.336 297C775.003 289.267 774.203 281.533 773.936 273.8C773.669 265.8 773.536 258.867 773.536 253C771.136 259.933 768.603 267.4 765.936 275.4C763.536 283.4 760.603 290.867 757.136 297.8C753.936 304.467 750.069 310.067 745.536 314.6C741.003 318.867 735.403 321 728.736 321C720.203 321 712.736 318.867 706.336 314.6C700.203 310.067 695.136 304.333 691.136 297.4C687.136 290.467 684.069 282.733 681.936 274.2C680.069 265.4 679.136 256.733 679.136 248.2ZM750.736 169C744.336 169 738.869 172.067 734.336 178.2C730.069 184.333 726.603 192.067 723.936 201.4C721.536 210.467 719.669 220.333 718.336 231C717.269 241.4 716.736 250.867 716.736 259.4C716.736 263.133 717.003 267.533 717.536 272.6C718.336 277.667 719.403 282.467 720.736 287C722.069 291.533 723.669 295.4 725.536 298.6C727.669 301.8 730.203 303.4 733.136 303.4C735.536 303.4 738.069 301.533 740.736 297.8C743.403 293.8 746.069 288.733 748.736 282.6C751.403 276.467 753.936 269.8 756.336 262.6C758.736 255.133 760.869 247.933 762.736 241C764.869 234.067 766.469 227.8 767.536 222.2C768.603 216.333 769.136 212.2 769.136 209.8C769.136 206.067 768.869 201.933 768.336 197.4C768.069 192.6 767.269 188.2 765.936 184.2C764.603 179.933 762.736 176.333 760.336 173.4C757.936 170.467 754.736 169 750.736 169Z" fill="url(#paint6_angular_22_33)"/>
<path d="M917.138 337.4C908.871 337.4 901.804 334.733 895.938 329.4C890.071 323.8 885.271 316.733 881.538 308.2C878.071 299.667 875.271 290.067 873.137 279.4C871.271 268.733 869.804 258.2 868.738 247.8C867.938 237.4 867.404 227.667 867.138 218.6C867.138 209.533 867.138 202.333 867.138 197C867.138 190.6 867.004 181.4 866.738 169.4C866.471 157.4 866.604 144.333 867.138 130.2C867.671 116.067 868.738 101.667 870.338 87C871.938 72.0666 874.604 58.6 878.338 46.6C882.071 34.6 887.138 24.7333 893.538 17C899.938 9.26665 908.071 5.39998 917.938 5.39998C937.938 5.39998 947.938 22.7333 947.938 57.4C947.938 72.3333 946.471 88.0666 943.538 104.6C940.871 121.133 937.138 137.133 932.338 152.6C927.538 168.067 921.938 182.467 915.538 195.8C909.138 208.867 902.338 219.667 895.138 228.2C895.138 230.867 895.271 235.133 895.538 241C895.804 246.6 896.204 252.867 896.738 259.8C897.538 266.733 898.471 273.933 899.538 281.4C900.604 288.6 902.071 295.267 903.938 301.4C905.804 307.533 908.071 312.6 910.738 316.6C913.671 320.333 917.004 322.2 920.738 322.2C926.338 322.2 931.404 319.933 935.938 315.4C940.738 310.867 945.004 305.133 948.738 298.2C952.738 291 956.204 283.133 959.138 274.6C962.338 266.067 965.138 257.933 967.538 250.2C970.204 242.467 972.338 235.667 973.938 229.8C975.538 223.933 976.871 220.067 977.938 218.2C978.471 217.133 979.804 216.6 981.938 216.6C984.071 216.6 986.204 217.4 988.338 219C990.738 220.6 991.938 222.467 991.938 224.6C991.938 229.667 991.138 236.067 989.538 243.8C987.938 251.267 985.538 259.133 982.338 267.4C979.404 275.667 975.671 284.067 971.138 292.6C966.871 300.867 961.938 308.333 956.338 315C950.738 321.667 944.604 327.133 937.938 331.4C931.538 335.4 924.604 337.4 917.138 337.4ZM918.737 16.2C915.271 16.2 912.204 19.6667 909.538 26.6C906.871 33.2667 904.604 42.2 902.738 53.4C900.871 64.3333 899.404 76.7333 898.338 90.6C897.271 104.467 896.338 118.467 895.538 132.6C895.004 146.733 894.471 160.467 893.938 173.8C893.671 186.867 893.538 198.2 893.538 207.8C897.804 200.067 902.204 190.2 906.738 178.2C911.538 165.933 915.804 152.733 919.538 138.6C923.271 124.467 926.338 110.067 928.738 95.4C931.404 80.7333 932.738 67 932.738 54.2C932.738 49.6667 932.338 45.1333 931.538 40.6C930.738 36.0667 929.671 32.0667 928.338 28.6C927.271 24.8667 925.804 21.9333 923.938 19.8C922.338 17.4 920.604 16.2 918.737 16.2Z" fill="url(#paint7_angular_22_33)"/>
</g>
<defs>
<radialGradient id="paint0_angular_22_33" cx="0" cy="0" r="1" gradientUnits="userSpaceOnUse" gradientTransform="translate(92.5 235.5) rotate(99.3148) scale(95.7628 73.5218)">
<stop offset="0.177178" stop-color="#037A92"/>
<stop offset="0.525296" stop-color="#157B93"/>
<stop offset="0.717873" stop-color="#1E91A0"/>
</radialGradient>
<linearGradient id="paint1_linear_22_33" x1="167.5" y1="42.5" x2="159" y2="353" gradientUnits="userSpaceOnUse">
<stop offset="0.295915" stop-color="#29949C"/>
<stop offset="0.808717" stop-color="#23929E"/>
</linearGradient>
<linearGradient id="paint2_linear_22_33" x1="379.5" y1="207.5" x2="164" y2="133" gradientUnits="userSpaceOnUse">
<stop stop-color="#ACD15E"/>
<stop offset="1" stop-color="#29949C"/>
</linearGradient>
<radialGradient id="paint3_angular_22_33" cx="0" cy="0" r="1" gradientUnits="userSpaceOnUse" gradientTransform="translate(330 218.5) rotate(94.9571) scale(98.3679 53.3992)">
<stop offset="0.178918" stop-color="#ACD15E"/>
<stop offset="0.654853" stop-color="#FAD500"/>
<stop offset="0.958511" stop-color="#D6D90D"/>
</radialGradient>
<radialGradient id="paint4_angular_22_33" cx="0" cy="0" r="1" gradientUnits="userSpaceOnUse" gradientTransform="translate(499.5 270.5) rotate(-149.982) scale(77.9567 93.7853)">
<stop stop-color="#FFD570"/>
<stop offset="0.489583" stop-color="#FF9246"/>
<stop offset="0.630208" stop-color="#FD9156"/>
<stop offset="0.730131" stop-color="#FF9932"/>
</radialGradient>
<radialGradient id="paint5_angular_22_33" cx="0" cy="0" r="1" gradientUnits="userSpaceOnUse" gradientTransform="translate(624 239) rotate(177.397) scale(55.0568 172.457)">
<stop stop-color="#FD9156"/>
<stop offset="0.190192" stop-color="#F45343"/>
<stop offset="0.522028" stop-color="#EF716F"/>
<stop offset="0.683391" stop-color="#EE7271"/>
<stop offset="0.892592" stop-color="#F55544"/>
</radialGradient>
<radialGradient id="paint6_angular_22_33" cx="0" cy="0" r="1" gradientUnits="userSpaceOnUse" gradientTransform="translate(759 202.5) rotate(134.524) scale(127.637 144.468)">
<stop offset="0.0411731" stop-color="#EF716F"/>
<stop offset="0.496594" stop-color="#9174B5"/>
<stop offset="0.643422" stop-color="#6163B8"/>
<stop offset="0.765833" stop-color="#625EAA"/>
<stop offset="0.870665" stop-color="#9575B3"/>
</radialGradient>
<radialGradient id="paint7_angular_22_33" cx="0" cy="0" r="1" gradientUnits="userSpaceOnUse" gradientTransform="translate(921.5 122.5) rotate(85.9899) scale(243.095 106.93)">
<stop offset="0.0903509" stop-color="#51A5D3"/>
<stop offset="0.159798" stop-color="#6163B8"/>
<stop offset="0.582662" stop-color="#6C99DF"/>
<stop offset="0.725878" stop-color="#6C9DE2"/>
<stop offset="0.897126" stop-color="#7FB6DD"/>
</radialGradient>
<clipPath id="clip0_22_33">
<rect width="1000" height="510" fill="white"/>
</clipPath>
</defs>
</svg>
