<?xml version="1.0" encoding="UTF-8" standalone="no"?>
<!-- Created with Inkscape (http://www.inkscape.org/) -->

<svg
   width="263.776mm"
   height="139.06166mm"
   viewBox="0 0 263.77599 139.06166"
   version="1.1"
   id="svg5"
   xml:space="preserve"
   sodipodi:docname="New document 1.2022_09_30_02_15_43.0.svg"
   xmlns:inkscape="http://www.inkscape.org/namespaces/inkscape"
   xmlns:sodipodi="http://sodipodi.sourceforge.net/DTD/sodipodi-0.dtd"
   xmlns="http://www.w3.org/2000/svg"
   xmlns:svg="http://www.w3.org/2000/svg"><style
     id="style18309">.start {  }
</style><sodipodi:namedview
     id="namedview7"
     pagecolor="#ffffff"
     bordercolor="#000000"
     borderopacity="0.25"
     inkscape:showpageshadow="2"
     inkscape:pageopacity="0.0"
     inkscape:pagecheckerboard="0"
     inkscape:deskcolor="#d1d1d1"
     inkscape:document-units="mm"
     showgrid="false" /><defs
     id="defs2" /><g
     inkscape:label="Layer 1"
     inkscape:groupmode="layer"
     id="layer1"
     transform="translate(45.36283,-42.359927)"><path
       style="fill:none;stroke:#000000;stroke-width:9.81345;stroke-linecap:round;stroke-opacity:1"
       d="m -20.16265,100.34747 c -1.091827,-4.064023 -2.183739,-8.128361 -3.548531,-10.615571 -1.364791,-2.48721 -3.002626,-3.397118 -4.883231,-3.548879 -1.880605,-0.151761 -4.003725,0.454845 -5.581056,1.941169 -1.57733,1.486325 -2.60856,3.852086 -3.639817,7.006565 -1.031257,3.15448 -2.062486,7.097416 -2.456752,10.979856 -0.394266,3.88245 -0.151624,7.70406 0.728054,11.19216 0.879679,3.4881 2.39619,6.64244 3.943154,8.82624 1.546963,2.18379 3.124136,3.397 4.792352,4.12485 1.668216,0.72785 3.427373,0.97049 5.034863,0.87945 1.60749,-0.091 3.063343,-0.51567 3.973199,-0.87963 0.909857,-0.36396 1.273818,-0.66726 2.214102,-1.36489 0.940283,-0.69763 2.456797,-1.78951 3.760998,-3.03306 1.304201,-1.24354 2.396096,-2.63874 3.457675,-4.27659 1.061579,-1.63786 2.092808,-3.51834 3.1543975,-5.48987 1.0615893,-1.97152 2.1534797,-4.03398 2.6994624,-3.88221 0.5459826,0.15176 0.5459826,2.51752 0.3639835,5.82361 -0.181999,3.3061 -0.5459624,7.55234 -1.0616024,11.55604 -0.51564,4.0037 -1.1829067,7.76466 -0.4246079,0.69739 0.7582988,-7.06727 2.9420791,-24.96214 3.7914079,-34.607324 0.8493287,-9.645188 0.364044,-11.040381 -0.151543,-12.162637 -0.5155869,-1.122257 -1.061531,-1.971505 -1.789478,-2.305317 -0.7279469,-0.333812 -1.6378572,-0.15183 -2.5175451,0.272815 -0.8796879,0.424646 -1.7289359,1.091912 -2.3052669,2.032289 -0.57633,0.940377 -0.879633,2.153587 -0.909903,3.306232 -0.03027,1.152646 0.212372,2.244536 0.849447,3.154422 0.637075,0.909886 1.6683043,1.637812 2.8208913,2.123031 1.1525871,0.485219 2.4264603,0.727861 4.0339725,0.697481 1.6075123,-0.03038 3.54865203,-0.333682 5.4595478,-0.424647 1.9108958,-0.09096 3.7913714,0.03036 5.0348907,0.637132 1.2435193,0.606777 1.8501246,1.698667 2.2140197,3.063557 0.3638951,1.36489 0.4852165,3.002725 0.5762031,4.943916 0.090987,1.9412 0.1516473,4.18564 0.1516396,6.46047 -7.8e-6,2.27483 -0.060668,4.57993 -0.090996,6.70312 -0.030328,2.12318 -0.030328,4.06432 0.2730561,5.73256 0.3033832,1.66823 0.9099922,3.06343 1.5166602,4.15534 0.606668,1.09191 1.21327,1.88049 1.759278,2.39605 0.546007,0.51556 1.03129,0.7582 1.66817,0.75809 0.63688,-1e-4 1.42547,-0.24275 2.274751,-0.48539 0.849281,-0.24265 1.759189,-0.48529 2.578045,-0.94024 0.818857,-0.45496 1.54678,-1.12222 2.153383,-1.75915 0.606604,-0.63693 1.091892,-1.24354 1.63785,-1.94115 0.545958,-0.69762 1.152566,-1.48621 1.72885,-2.33546 0.576283,-0.84926 1.122229,-1.75917 1.819889,-2.54783 0.69766,-0.78866 1.54691,-1.45593 2.183816,-2.27479 0.636907,-0.81887 1.061532,-1.78944 1.728837,-7.82534 0.667305,-6.03589 1.395228,-19.866555 1.364888,-19.411472 -0.03034,0.455083 -0.818923,15.195652 -1.06152,22.232472 -0.242596,7.03682 0.242688,9.09927 0.667398,10.37317 0.424709,1.27389 0.788675,1.75918 1.182954,2.39615 0.394279,0.63696 0.818905,1.42555 1.486264,1.94106 0.66736,0.51551 1.577269,0.75816 2.396203,0.94013 0.818935,0.18197 1.546862,0.30329 2.274752,0.27291 0.727891,-0.0304 1.455819,-0.21237 2.062369,-0.48534 0.606549,-0.27298 1.091833,-0.63694 1.577105,-1.09188 0.485271,-0.45495 0.97056,-1.0009 1.577172,-1.78949 0.606612,-0.78859 1.334537,-1.81982 2.062476,-3.27568 0.727939,-1.45585 1.455867,-3.33633 1.91084,-4.79219 0.454974,-1.45585 0.636956,-2.48708 1.273911,-5.18659 0.636956,-2.69951 1.728846,-7.06707 2.578129,-12.61766 0.849283,-5.550593 1.455888,-12.283913 1.607548,-5.883891 0.15166,6.400023 -0.151642,25.932721 -0.424625,38.793071 -0.272984,12.86036 -0.515625,19.04773 -1.000946,23.50636 -0.485321,4.45864 -1.213248,7.18836 -1.97153,9.52383 -0.758283,2.33547 -1.546871,4.27661 -2.33548,5.9448 -0.788608,1.66819 -1.577193,3.06338 -2.487072,4.09458 -0.909879,1.03119 -1.941112,1.69845 -2.94201,2.2444 -1.000899,0.54596 -1.971468,0.97058 -2.972345,1.24358 -1.000877,0.27299 -2.032106,0.39431 -2.942014,0.42467 -0.909908,0.0303 -1.698496,-0.0303 -2.51742,-0.21225 -0.818923,-0.18194 -1.668173,-0.48525 -2.517448,-0.87952 -0.849276,-0.39428 -1.698521,-0.87956 -2.608475,-1.54681 -0.909953,-0.66726 -1.880522,-1.51651 -2.638864,-2.5174 -0.758342,-1.0009 -1.304287,-2.15345 -1.789637,-4.034 -0.485349,-1.88054 -0.909973,-4.48894 -0.81902,-7.09748 0.09095,-2.60854 0.697556,-5.21694 1.698489,-7.73449 1.000932,-2.51754 2.396124,-4.94396 4.064365,-7.12784 1.668241,-2.18388 3.609381,-4.12502 5.277638,-5.48995 1.668257,-1.36492 3.06345,-2.15351 4.428349,-2.94212 1.364898,-0.78861 2.699429,-1.57719 4.337369,-2.21415 1.63794,-0.63695 3.57908,-1.12223 6.460515,-2.27483 2.881434,-1.15259 6.703051,-2.97241 9.402468,-4.54961 2.699418,-1.57721 4.276596,-2.91174 5.61114,-4.24629 1.334544,-1.33455 2.426433,-2.66908 3.336352,-4.33724 0.90992,-1.66816 1.637847,-3.66996 2.335469,-6.09643 0.697621,-2.42648 1.364886,-5.27752 1.789516,-7.0064 0.424631,-1.72888 0.606615,-2.33548 0.455017,-3.66999 -0.151598,-1.33451 -0.636882,-3.396973 -0.485283,-5.338259 0.151599,-1.941286 0.940186,-3.761103 1.819834,-5.065413 0.879648,-1.304311 1.850216,-2.092897 2.851198,-2.699535 1.000981,-0.606637 2.032209,-1.03126 2.760152,-1.334571 0.727943,-0.303311 1.152567,-0.485294 1.668286,-0.515566 0.51572,-0.03027 1.122328,0.09105 1.698612,0.18203 0.576284,0.09098 1.122228,0.151639 1.69852,0.424722 0.576293,0.273082 1.1829,0.758367 1.698482,1.334699 0.515583,0.576332 0.940205,1.243596 1.334476,2.032214 0.394271,0.788618 0.758234,1.698526 1.000828,3.033083 0.242595,1.334558 0.363916,3.093714 0.424568,4.913575 0.06065,1.819861 0.06065,3.700341 -6e-6,2.942041 -0.06066,-0.7583 -0.18198,-4.155294 -0.454921,-6.581758 -0.272941,-2.426464 -0.697565,-3.882318 -1.213116,-4.943925 -0.515551,-1.061606 -1.122156,-1.728872 -1.971398,-2.244586 -0.849242,-0.515714 -1.941133,-0.879677 -3.184752,-1.001063 -1.243619,-0.121385 -2.638812,-6.4e-5 -4.337439,0.636882 -1.698627,0.636947 -3.700426,1.789497 -4.822724,3.579185 -1.122299,1.789687 -1.364942,4.21611 -1.243567,6.490985 0.121375,2.27487 0.60666,4.39799 3.427593,7.52208 2.820933,3.12408 7.977083,7.249 11.161807,10.10015 3.184723,2.85115 4.397933,4.42832 4.670767,6.55146 0.272833,2.12313 -0.394432,4.79219 -1.243701,6.85464 -0.849269,2.06245 -1.880503,3.5183 -2.942038,4.57984 -1.061535,1.06154 -2.153427,1.72881 -3.214923,2.06247 -1.061495,0.33366 -2.092724,0.33366 -2.941985,0.30334 -0.849261,-0.0303 -1.516527,-0.091 -2.27479,-0.27292 -0.758264,-0.18194 -1.607515,-0.48525 -2.547812,-1.18279 -0.940297,-0.69754 -1.971525,-1.78943 -2.48728,-3.45766 -0.515754,-1.66822 -0.515754,-3.91266 0.121199,-5.76298 0.636954,-1.85032 1.910825,-3.30618 4.185712,-5.12608 2.274888,-1.81991 5.550557,-4.00369 10.524925,-6.46052 4.974369,-2.45684 11.64703,-5.18656 15.13502,-6.70308 3.48799,-1.51652 3.79129,-1.81982 4.39791,-10.615826 0.60662,-8.796005 3.51837,-44.464777 3.39704,-41.431455 -0.12134,3.033322 -3.27573,44.768151 -3.45765,57.689161 -0.18193,12.92101 0.60666,15.40809 1.42565,17.31895 0.81899,1.91085 1.66824,3.24539 2.57823,4.06422 0.91,0.81883 1.88057,1.12214 3.09373,0.9704 1.21316,-0.15174 2.66901,-0.75834 3.88218,-1.60759 1.21317,-0.84924 2.18374,-1.94113 3.48797,-3.82164 1.30423,-1.88051 2.94206,-4.54957 4.36762,-7.1277 1.42556,-2.57813 2.63877,-5.06522 2.27484,-10.9494 -0.36393,-5.88419 -87.095976,-43.303308 -81.620146,-50.955929 5.41315,-7.56502 -2.048773,11.968031 7.218597,7.400713 7.83648,-3.862123 -13.375917,9.160188 -29.208847,5.156353 C 9.8645941,69.470633 101.58578,48.239021 87.421158,52.09127 73.256532,55.943519 74.409083,63.950712 75.410142,68.045267 c 1.00106,4.094556 1.850309,4.276537 14.286187,4.276502 12.435881,-3.6e-5 36.457461,-0.182018 49.712101,0.424703 13.25465,0.606722 -15.19577,11.647134 -19.1693,14.255513 -3.97354,2.60838 7.41191,0.230561 1.42548,1.546768 -4.16012,0.914665 -3.21514,0.454988 -2.69946,5.550812 0.51568,5.095824 8.58366,14.862185 10.5248,17.955785 1.94115,3.0936 3.94295,0.0606 5.15622,0.51569 1.21328,0.45511 1.6379,4.39805 2.42661,7.15818 0.7887,2.76012 1.94126,4.3373 3.06356,5.36848 1.12231,1.03118 2.21419,1.51646 3.36673,1.66802 1.15254,0.15157 2.36575,-0.0304 3.33622,-0.57634 0.97048,-0.54594 1.6984,-1.45584 2.66899,-3.66997 0.97058,-2.21413 2.18379,-5.73244 3.06339,-8.31058 0.87961,-2.57814 1.42555,-4.21598 2.06251,-6.24817 0.63695,-2.03218 1.36488,-4.45861 1.66822,-6.64239 0.30334,-2.18379 0.18202,-4.124929 -0.27288,-5.944779 -0.45491,-1.81985 -1.24349,-3.518347 -2.30502,-4.943948 -1.06153,-1.425602 -2.39606,-2.578151 -4.09466,-2.881599 -1.6986,-0.303448 -3.76106,0.242497 -5.49004,1.334461 -1.72897,1.091965 -3.12416,2.7298 -4.58008,5.550671 -1.45591,2.820871 -2.97243,6.824464 -3.54867,10.949584 -0.57625,4.12511 -0.21228,8.37135 0.78873,11.98077 1.00101,3.60942 2.63884,6.58178 4.70139,7.82517 2.06254,1.24338 4.54962,0.7581 6.49068,-1.00104 1.94106,-1.75915 3.33626,-4.79217 4.70116,-8.64422 1.3649,-3.85204 2.69943,-8.5229 3.88251,-10.82812 1.18308,-2.30523 2.21431,-2.24457 3.03311,-5.671914 0.81879,-3.427348 1.42539,-10.342651 1.36473,-7.309429 -0.0607,3.033222 -0.7886,16.014573 -0.78854,23.809673 6e-5,7.7951 0.72798,10.4035 1.51668,12.13234 0.7887,1.72885 1.63795,2.5781 2.57824,3.09362 0.94029,0.51552 1.97151,0.6975 2.85104,0.66711 0.87953,-0.0304 1.60746,-0.27303 2.57801,-0.84931 0.97054,-0.57629 2.18375,-1.4862 3.39696,-2.7904 1.2132,-1.3042 2.42641,-3.00269 4.12496,-6.3391 1.69854,-3.33641 3.88232,-8.31058 5.70219,-11.95034 1.81987,-3.63975 3.27573,-5.94486 4.42834,-7.49178 1.1526,-1.54692 2.00185,-2.335507 2.94209,-4.246299 0.94024,-1.910791 1.97147,-4.943819 3.06339,-8.037604 1.09192,-3.093786 2.24447,-6.248135 3.21508,-9.79686 0.9706,-3.548725 1.75919,-7.491661 2.27482,-10.949392 0.51564,-3.457732 0.75828,-6.430099 0.81896,-8.856569 0.0607,-2.426469 -0.0606,-4.306947 -0.39423,-5.914477 -0.33359,-1.60753 -0.87953,-2.942064 -1.51643,-4.003674 -0.63689,-1.061611 -1.36482,-1.850201 -2.03207,-2.335586 -0.66726,-0.485385 -1.27386,-0.667365 -2.09288,-0.606774 -0.81901,0.06059 -1.85024,0.363893 -2.82095,1.21323 -0.97071,0.849337 -1.88061,2.244526 -2.82089,4.519427 -0.94027,2.274901 -1.91083,5.42925 -2.82075,13.618761 -0.90992,8.18951 -1.75916,21.413509 -1.48614,31.968762 0.27303,10.555255 1.66822,18.441125 3.00286,23.476075 1.33463,5.03496 2.60851,7.21874 3.94313,8.37117 1.33462,1.15243 2.72981,1.27375 3.73065,1.18272 1.00083,-0.091 1.60744,-0.39434 2.60839,-0.81898 1.00095,-0.42464 2.39614,-0.97059 3.57896,-1.97146 1.18283,-1.00088 2.1534,-2.45672 3.70029,-5.64149 1.54689,-3.18476 3.67001,-8.09826 5.30789,-12.40526 1.63788,-4.30701 2.79043,-8.0073 3.94305,-11.707834"
       id="path10843"
       sodipodi:nodetypes="csssssssscsssssssssssssssssssssssssssssssssssssssssssssssssssssssssscsssssssssssssssssssssssssssssssssssssssssssssssssssssssssssssssssssssssssssssssssssssssssssssssssssssssssssssssssssssssssssc"
       class="start"
       inkscape:export-filename="Desktop/path10843.svg"
       inkscape:export-xdpi="96"
       inkscape:export-ydpi="96" /></g></svg>
